<svg xmlns="http://www.w3.org/2000/svg" width="39.468" height="39.468" viewBox="0 0 39.468 39.468"><g transform="translate(-76.298 -192.629)"><path d="M97.563,220.837a3.473,3.473,0,0,0-3.27,2.312H86.8a3.469,3.469,0,1,0,0,2.312h7.49a3.468,3.468,0,1,0,6.4-2.651l4.626-4.626a3.469,3.469,0,1,0-1.634-1.635l-4.626,4.626a3.447,3.447,0,0,0-1.495-.339Zm-14.03,4.625a1.156,1.156,0,1,1,1.156-1.156,1.158,1.158,0,0,1-1.156,1.156Zm14.03,0a1.156,1.156,0,1,1,1.156-1.156,1.157,1.157,0,0,1-1.156,1.156Zm9.249-11.563a1.156,1.156,0,1,1-1.156,1.157,1.159,1.159,0,0,1,1.156-1.157Zm0,0" transform="translate(0.859 4.323)" fill="#161615"/><path d="M84.392,200.224a8.1,8.1,0,0,0-8.094,8.094,8.322,8.322,0,0,0,1.305,4.488l5.82,8.939a1.156,1.156,0,0,0,1.938,0l5.818-8.939a8.312,8.312,0,0,0,1.307-4.488,8.1,8.1,0,0,0-8.094-8.094Zm4.849,11.32L84.392,219l-4.849-7.452a5.96,5.96,0,0,1-.932-3.226,5.782,5.782,0,1,1,11.563,0,5.971,5.971,0,0,1-.932,3.226Zm0,0" transform="translate(0 1.732)" fill="#161615"/><path d="M83.533,203.99A3.469,3.469,0,1,0,87,207.459a3.473,3.473,0,0,0-3.469-3.469Zm0,4.626a1.156,1.156,0,1,1,1.156-1.157,1.159,1.159,0,0,1-1.156,1.157Zm0,0" transform="translate(0.859 2.591)" fill="#161615"/><path d="M103.349,192.629a8.141,8.141,0,0,0-8.094,8.17,8.058,8.058,0,0,0,1.305,4.409l5.817,9.015a1.157,1.157,0,0,0,1.944,0l5.816-9.012a8.156,8.156,0,0,0-6.789-12.581Zm4.847,11.324-4.847,7.511L98.5,203.949a5.766,5.766,0,0,1-.932-3.15,5.782,5.782,0,1,1,11.563,0,5.759,5.759,0,0,1-.935,3.154Zm0,0" transform="translate(4.323)" fill="#161615"/><path d="M102.49,196.458a3.469,3.469,0,1,0,3.469,3.468,3.472,3.472,0,0,0-3.469-3.468Zm0,4.625a1.156,1.156,0,1,1,1.157-1.157,1.157,1.157,0,0,1-1.157,1.157Zm0,0" transform="translate(5.182 0.873)" fill="#161615"/></g></svg>