<svg id="Grupo_341" data-name="Grupo 341" xmlns="http://www.w3.org/2000/svg" width="64.711" height="63.2" viewBox="0 0 64.711 63.2">
  <g id="Grupo_335" data-name="Grupo 335">
    <path id="Caminho_3577" data-name="Caminho 3577" d="M354.322,402.807a15.2,15.2,0,1,0,9.969,14.275A15.308,15.308,0,0,0,354.322,402.807Zm-.57,26.953a13.511,13.511,0,1,1,8.839-12.678A13.664,13.664,0,0,1,353.753,429.76Z" transform="translate(-316.355 -385.666)" fill="#fff"/>
    <path id="Caminho_3578" data-name="Caminho 3578" d="M354.575,392.178V381.234a.85.85,0,0,0-1.7,0v10.944A.85.85,0,0,0,354.575,392.178Z" transform="translate(-320.992 -380.413)" fill="#fff"/>
    <path id="Caminho_3579" data-name="Caminho 3579" d="M352.875,448.234v10.944a.85.85,0,0,0,1.7,0V448.234A.85.85,0,0,0,352.875,448.234Z" transform="translate(-320.992 -396.799)" fill="#fff"/>
    <path id="Caminho_3580" data-name="Caminho 3580" d="M391.435,420.875H380.49a.85.85,0,0,0,0,1.7h10.945A.85.85,0,0,0,391.435,420.875Z" transform="translate(-327.545 -390.309)" fill="#fff"/>
    <path id="Caminho_3581" data-name="Caminho 3581" d="M322.435,420.875H311.49a.85.85,0,0,0,0,1.7h10.945A.85.85,0,0,0,322.435,420.875Z" transform="translate(-310.67 -390.309)" fill="#fff"/>
  </g>
  <g id="Grupo_340" data-name="Grupo 340" transform="translate(9.336 8.321)">
    <g id="Grupo_336" data-name="Grupo 336" transform="translate(36.46 0.931)">
      <path id="Caminho_3582" data-name="Caminho 3582" d="M379.282,392.911l-6.775,6.774-.964.965a.85.85,0,0,0,1.2,1.2l6.775-6.775.964-.964a.85.85,0,0,0-1.2-1.2Z" transform="translate(-371.293 -392.661)" fill="#fff"/>
    </g>
    <g id="Grupo_337" data-name="Grupo 337" transform="translate(0.671 36.721)">
      <path id="Caminho_3583" data-name="Caminho 3583" d="M331.906,440.287l-6.775,6.775-.964.964a.85.85,0,0,0,1.2,1.2l6.775-6.775.964-.964a.85.85,0,0,0-1.2-1.2Z" transform="translate(-323.917 -440.037)" fill="#fff"/>
    </g>
    <g id="Grupo_338" data-name="Grupo 338" transform="translate(36.858 36.858)">
      <path id="Caminho_3584" data-name="Caminho 3584" d="M381.009,448.207l-6.775-6.775-.964-.964a.85.85,0,0,0-1.2,1.2l6.775,6.775.964.964a.85.85,0,0,0,1.2-1.2Z" transform="translate(-371.819 -440.218)" fill="#fff"/>
    </g>
    <g id="Grupo_339" data-name="Grupo 339">
      <path id="Caminho_3585" data-name="Caminho 3585" d="M332.219,399.417l-6.775-6.775-.964-.964a.85.85,0,0,0-1.2,1.2l6.774,6.775.965.964a.85.85,0,0,0,1.2-1.2Z" transform="translate(-323.029 -391.428)" fill="#fff"/>
    </g>
  </g>
</svg>
