<svg id="Grupo_345" data-name="Grupo 345" xmlns="http://www.w3.org/2000/svg" width="463.331" height="68" viewBox="0 0 463.331 68">
  <text id="Área_de_lazer_com_2_opções_de_piscina" data-name="Área de lazer 
com 2 opções de piscina" transform="translate(84.331 27)" fill="#fff" font-size="28" font-family="Montserrat-Medium, Montserrat" font-weight="500" letter-spacing="0.05em"><tspan x="0" y="0">Área de lazer </tspan><tspan x="0" y="34">com 2 opções de piscina</tspan></text>
  <g id="Grupo_342" data-name="Grupo 342" transform="translate(0 7.733)">
    <path id="Caminho_3586" data-name="Caminho 3586" d="M216.224,314.494a19.929,19.929,0,0,0,2.565-3.979,20.063,20.063,0,1,0-34.932,2.013,20.137,20.137,0,0,0,13.419,8.939,20.467,20.467,0,0,0,4.039.3c1.359-.039,2.736-.515,4.065-.528.788-.009.816.06,1.486.752a9.289,9.289,0,0,1,.794.953l2.086,3.569c1.454,2.83,3.208,6.591,6.643,6.513a4.132,4.132,0,0,0,3.827-4.554c-.082-1.657-1.06-3.065-1.849-4.464l-.089-.153,0-.009q-1.447-2.656-2.895-5.309a4.719,4.719,0,0,1-.638-2.41C214.9,315.617,215.866,314.932,216.224,314.494Zm-2.032,6.579c.271.5.58,1,.9,1.508l.788,1.444-3.68,2.338c-.235-.426-.469-.854-.708-1.276-.448-.794-.9-1.59-1.382-2.366q1.9-1.082,3.807-2.165C214.012,320.739,214.107,320.917,214.192,321.073Zm1.6,9.707a3.56,3.56,0,0,1-2.147-1.877c-.127-.209-.242-.425-.366-.635l3.792-2.41a11.067,11.067,0,0,1,.806,1.911C218.32,329.228,217.654,331.171,215.8,330.78Zm-1.639-17.229c-.412.463-1.114.909-1.4,1.447a4.562,4.562,0,0,0,.239,3.56l-4.179,2.376a9.42,9.42,0,0,0-1.663-1.59c-1.029-.739-1.687-.349-2.861-.107a17.87,17.87,0,0,1-16.6-29.721c8.228-8.777,22.665-6.85,28.65,3.417a17.853,17.853,0,0,1-.887,18.968A16.619,16.619,0,0,1,214.157,313.551Z" transform="translate(-180.757 -281.7)" fill="#fff"/>
    <path id="Caminho_3587" data-name="Caminho 3587" d="M218.63,282.314a5.477,5.477,0,0,0-6.036,1.612,5.472,5.472,0,1,0,6.036-1.612Zm-.69,8.218a4.968,4.968,0,0,1-.565.158l-.162.029c-.086.009-.174.016-.26.019a2.747,2.747,0,0,1-1.076-.118,2.586,2.586,0,0,1-.9-.406,2.98,2.98,0,0,1-.791-.715l-.05-.063c-.067-.092-.128-.19-.187-.288-.039-.066-.077-.133-.112-.2,0,.006-.076-.158-.1-.194a4.285,4.285,0,0,1-.168-.518,1.952,1.952,0,0,1-.08-.473,3.3,3.3,0,0,1,.054-.969,2.768,2.768,0,0,1,.4-1.026,3.286,3.286,0,1,1,3.986,4.764Z" transform="translate(-166.712 -281.568)" fill="#fff"/>
  </g>
</svg>
