<svg id="Grupo_343" data-name="Grupo 343" xmlns="http://www.w3.org/2000/svg" width="50.063" height="66.256" viewBox="0 0 50.063 66.256">
  <path id="Caminho_3588" data-name="Caminho 3588" d="M1115.055,362.689c-.508-5.96-2.2-12.118-6.408-16.561-4.866-5.133-12-6.458-18.8-6.113-5.855.3-12.257,1.241-17.084,4.844-4.163,3.107-6.334,7.814-7.119,12.859a47.88,47.88,0,0,0-.391,9.8,44.958,44.958,0,0,0,.658,6.852c1.594,7.625,7.191,13.842,13.879,17.657l-7.8,10.04-1.9,2.45a1.031,1.031,0,0,0,0,1.412,1,1,0,0,0,1.411,0q1.961-2.521,3.92-5.044a.954.954,0,0,0,.255.051H1106.7l2.041,3.094,1.12,1.7c.7,1.068,2.434.069,1.723-1.008q-3.876-5.877-7.754-11.754-.559-.849-1.12-1.7a1.042,1.042,0,0,0-.247-.261,27.916,27.916,0,0,0,9.8-9.486,21.571,21.571,0,0,0,2.692-9.086A55.25,55.25,0,0,0,1115.055,362.689Zm-14.069,29.586,4.4,6.664h-28.458q1.113-1.434,2.228-2.866l2.1-2.708a1.339,1.339,0,0,0,.22-.44c.984.49,1.984.933,3,1.316a40.756,40.756,0,0,0,6.02,1.74c.016,0,.031,0,.047.005a1,1,0,0,0,.484-.005,41.466,41.466,0,0,0,8.394-3.267c.481-.242.956-.5,1.432-.765A1,1,0,0,0,1100.986,392.275Zm12.229-24.228a31.311,31.311,0,0,1-1.17,9.161c-2.933,8.833-12.494,14.234-20.964,16.683-.115.033-.229.063-.344.095-6.409-1.407-12.486-4.262-16.97-9.152a25.252,25.252,0,0,1-5.586-9.663,13.212,13.212,0,0,1-.428-1.771,59.192,59.192,0,0,1-.579-10.36c.119-4.917.943-10.3,4.219-14.187,3.339-3.962,8.428-5.6,13.4-6.359,6.5-.987,13.877-1.1,19.578,2.635,4.753,3.112,7.179,8.464,8.2,13.886A43.764,43.764,0,0,1,1113.215,368.047Z" transform="translate(-1065.163 -339.963)" fill="#fff"/>
  <path id="Caminho_3589" data-name="Caminho 3589" d="M1110.543,379.667a33.9,33.9,0,0,1-8.673,6.057,1,1,0,0,0,1.008,1.723c1.082-.542,2.13-1.163,3.155-1.805a33.809,33.809,0,0,0,5.921-4.563A1,1,0,0,0,1110.543,379.667Z" transform="translate(-1069.24 -344.399)" fill="#fff"/>
  <path id="Caminho_3590" data-name="Caminho 3590" d="M1083.751,385.724a33.907,33.907,0,0,1-8.673-6.057,1,1,0,0,0-1.411,1.412,33.819,33.819,0,0,0,5.921,4.563c1.025.643,2.073,1.263,3.155,1.805a1.022,1.022,0,0,0,1.366-.358A1.008,1.008,0,0,0,1083.751,385.724Z" transform="translate(-1066.087 -344.399)" fill="#fff"/>
  <path id="Caminho_3591" data-name="Caminho 3591" d="M1107.176,368.644c1.905-2.664,1.778-5.589,1.54-8.67a12.561,12.561,0,0,0-4-8.647,16.9,16.9,0,0,0-11.081-3.82c-1.2.008-2.4.167-3.6.206a34.45,34.45,0,0,0-4.717.483c-3.716.638-7.5,1.975-9.37,5.5-1.138,2.148-1.273,4.695-1.613,7.061a11.53,11.53,0,0,0,3.808,10.675,21.958,21.958,0,0,0,13.066,5.361c.034,0,.057-.014.089-.016a1.12,1.12,0,0,0,.177-.02,38.448,38.448,0,0,0,6.023-1.884C1100.93,373.518,1104.967,371.733,1107.176,368.644ZM1096.83,373a38.87,38.87,0,0,1-5.709,1.787,19.857,19.857,0,0,1-10.705-4.124,9.634,9.634,0,0,1-4.191-9.131c.2-1.611.386-3.274.737-4.86.823-3.72,3.814-5.4,7.28-6.225a37.567,37.567,0,0,1,6.947-.752,21.978,21.978,0,0,1,5.521.087,16.425,16.425,0,0,1,5,1.817,10.149,10.149,0,0,1,4.969,7.886c.21,2.3.561,4.7-.462,6.862C1104.583,369.8,1100.2,371.685,1096.83,373Z" transform="translate(-1066.181 -340.812)" fill="#fff"/>
</svg>
