<svg xmlns="http://www.w3.org/2000/svg" width="224.388" height="224.388" viewBox="0 0 224.388 224.388"><g transform="translate(651 -405)"><g transform="translate(-651 405)"><path d="M0,0H224.388V224.388H0Z" transform="translate(0)" fill="#363636" opacity="0.7"/><g transform="translate(33.391 66.243)"><g transform="translate(52.044 0.786)"><path d="M-485.966,1065.473h-3.564c-4.494,0-8.989-.025-13.483.022a1.65,1.65,0,0,1-1.668-1c-2.915-5.2-5.871-10.377-8.816-15.56-.132-.233-.284-.455-.484-.773-1.584,1.274-3.128,2.505-4.66,3.752-1.17.952-2.771,1.709-3.361,2.944s-.17,2.955-.176,4.463c-.009,2.014,0,4.028,0,6.1h-15.271v-47.495h15.263v20.13c1.683-2,3.178-3.774,4.662-5.553,3.89-4.662,7.767-9.334,11.678-13.978a1.8,1.8,0,0,1,1.167-.639c5.832-.041,11.665-.028,17.5-.023a7.379,7.379,0,0,1,.8.11l-17.015,19.475C-497.609,1046.752-491.86,1056-485.966,1065.473Z" transform="translate(537.452 -1017.851)" fill="#fff"/></g><path d="M-577.428,1032.222c-.042-.263-.083-.563-.138-.861a4.272,4.272,0,0,0-3.261-3.7,9.8,9.8,0,0,0-7.573.647c-1.968,1.14-1.9,3.307.144,4.353a18.693,18.693,0,0,0,3.861,1.346c4.206,1.08,8.445,2.035,12.643,3.143a15.509,15.509,0,0,1,5.984,3.3c3.169,2.662,4.154,6.165,3.945,10.127-.281,5.354-2.393,9.653-7.216,12.359a21.637,21.637,0,0,1-7.234,2.528,41.8,41.8,0,0,1-19.9-1.375,14.456,14.456,0,0,1-7.2-4.727,16.33,16.33,0,0,1-2.83-10.245h14.4c.043.4.091.769.12,1.139.19,2.432,1.163,3.722,3.537,4.308a16.848,16.848,0,0,0,8.447-.057,2.531,2.531,0,0,0,2.173-2.4,2.565,2.565,0,0,0-1.724-2.55,11.12,11.12,0,0,0-1.821-.685c-2.788-.7-5.592-1.325-8.377-2.03-3.314-.839-6.7-1.529-9.648-3.376-5.14-3.215-7-7.292-6.276-13.65.691-6.047,4.618-9.281,9.952-11.248a33.578,33.578,0,0,1,12.647-1.736,27.8,27.8,0,0,1,11.644,2.582c3.665,1.784,6.489,4.357,7.5,8.477a24.738,24.738,0,0,1,.51,3.756c.019.22-.383.685-.591.686-4.526.02-9.051-.011-13.577-.033C-577.316,1032.3-577.346,1032.267-577.428,1032.222Z" transform="translate(606.258 -1016.811)" fill="#fff"/><g transform="translate(104.874 0.767)"><path d="M-448.791,1065.4v-3.882c0-4.565.014-9.129-.02-13.693a2.98,2.98,0,0,0-.449-1.513q-8.837-13.7-17.721-27.367c-.184-.285-.351-.579-.626-1.032.488-.026.841-.061,1.2-.061,5.078,0,10.157.016,15.236-.021a1.666,1.666,0,0,1,1.692.971c2.636,4.651,5.325,9.272,8,13.9.185.321.389.632.654,1.061.251-.372.451-.632.613-.914,2.707-4.69,5.423-9.375,8.1-14.083a1.6,1.6,0,0,1,1.615-.938c4.8.039,9.608.02,14.413.02h1.219c-.281.479-.452.791-.642,1.09q-8.694,13.606-17.373,27.223a3.775,3.775,0,0,0-.551,1.9c-.042,5.354-.024,10.708-.024,16.061v1.281Z" transform="translate(467.606 -1017.825)" fill="#fff"/></g><g transform="translate(23.287 58.964)"><g transform="translate(19.326 0.18)"><path d="M-548.218,1110.737h-1.7v-15.518c1.852-.4,1.955-.359,2.94,1.153q3.506,5.381,7.016,10.757c.161.247.344.479.562.78v-12.77h1.707v15.486c-1.742.436-2.023.332-2.942-1.079q-3.418-5.252-6.839-10.5c-.2-.3-.408-.6-.742-1.08Z" transform="translate(549.92 -1095.003)" fill="#fff"/></g><g transform="translate(35.797 0.311)"><path d="M-516.277,1110.787h-1.8v-7.229h-8.177v7.183h-1.9v-15.564h1.824v6.464h8.164v-6.453h1.88Z" transform="translate(528.145 -1095.176)" fill="#fff"/></g><g transform="translate(51.987 0.289)"><path d="M-506.74,1095.148h8.661v1.638h-6.692v4.913h6.282v1.738h-6.29v5.645h6.7v1.668h-8.663Z" transform="translate(506.74 -1095.148)" fill="#fff"/></g><g transform="translate(99.641 0.012)"><path d="M-443.738,1108.669c1.9.2,3.584.517,5.27.523,2.1.008,3.316-1.514,2.668-3.26a3.367,3.367,0,0,0-1.492-1.553c-1.1-.608-2.331-.974-3.473-1.516a4.1,4.1,0,0,1-2.616-3.42,3.791,3.791,0,0,1,3.2-4.427,9.637,9.637,0,0,1,6.108.661l-.548,1.578a23.209,23.209,0,0,0-2.706-.612,8.952,8.952,0,0,0-2.433.094,1.964,1.964,0,0,0-1.676,1.725,2.151,2.151,0,0,0,.944,2.336,25.3,25.3,0,0,0,2.483,1.2,22.126,22.126,0,0,1,2.5,1.184,4.014,4.014,0,0,1-.154,6.906c-2.4,1.336-4.978,1.079-7.468.263C-443.505,1110.239-443.567,1109.191-443.738,1108.669Z" transform="translate(443.738 -1094.781)" fill="#fff"/></g><g transform="translate(13.193 0.334)"><path d="M-556.208,1095.207v15.567h-1.821v-15.567Z" transform="translate(558.029 -1095.207)" fill="#fff"/></g><g transform="translate(64.211 0.292)"><path d="M-490.579,1095.152h1.768v15.609h-1.768Z" transform="translate(490.579 -1095.152)" fill="#fff"/></g><g transform="translate(82.899)"><path d="M-459.368,1094.791a6.48,6.48,0,0,0-5.9,4.349,11.845,11.845,0,0,0-.39,6.073,6.589,6.589,0,0,0,5.877,5.7c3.656.393,6.475-1.014,7.65-4.006a27.651,27.651,0,0,0,.939-3.948C-451.215,1098.633-453.5,1094.4-459.368,1094.791Zm5.609,10.9a4.436,4.436,0,0,1-4.451,3.537c-2.774.058-4.4-.956-5.15-3.3a10.124,10.124,0,0,1-.085-5.864c.709-2.582,2.715-3.808,5.6-3.544a4.762,4.762,0,0,1,4.326,4.583c.066.612.088,1.228.147,2.087A21.947,21.947,0,0,1-453.759,1105.692Z" transform="translate(465.872 -1094.766)" fill="#fff"/></g><g transform="translate(70.223 0.126)"><path d="M-475.71,1103.785c.4-.213.7-.362.992-.532a4.106,4.106,0,0,0,2.06-4.266c-.194-2-1.185-3.312-3.09-3.6-2.241-.339-4.538-.317-6.883-.456v15.748h1.922v-6.356c.8,0,1.517.049,2.223-.014a1.344,1.344,0,0,1,1.446.849c.766,1.414,1.606,2.787,2.412,4.18.936,1.616.935,1.617,3.035,1.315Zm-2.377-1.154c-.819.028-1.639.008-2.558.008v-5.956c1.368.093,2.675.084,3.947.294,1.5.246,2.044,1.091,2.028,2.725a2.526,2.526,0,0,1-2.094,2.752A7.662,7.662,0,0,1-478.087,1102.631Z" transform="translate(482.631 -1094.932)" fill="#fff"/></g><g transform="translate(0 0.216)"><path d="M-567.708,1095.781c-2.509-1.141-5.151-.568-7.763-.7v15.632h1.922v-6.1a19,19,0,0,0,2.822-.028,10.428,10.428,0,0,0,3.023-.855,4.216,4.216,0,0,0,2.24-4.2A3.887,3.887,0,0,0-567.708,1095.781Zm-1.686,6.854a36.388,36.388,0,0,1-4.119.445v-6.4a36.8,36.8,0,0,1,4.154.416c1.295.271,1.853,1.268,1.851,2.717C-567.509,1101.312-568.088,1102.35-569.394,1102.635Z" transform="translate(575.471 -1095.051)" fill="#fff"/></g></g><g transform="translate(31.112 84.847)"><path d="M-561.586,1135.006a.907.907,0,0,0-.326-.737,3.475,3.475,0,0,0-1.2-.515,4.179,4.179,0,0,1-1.268-.533,1.256,1.256,0,0,1-.57-1.069,1.251,1.251,0,0,1,.529-1.045,2.172,2.172,0,0,1,1.352-.4,2.249,2.249,0,0,1,1,.216,1.643,1.643,0,0,1,.683.6,1.578,1.578,0,0,1,.242.859h-.477a1.178,1.178,0,0,0-.392-.924,1.532,1.532,0,0,0-1.054-.349,1.66,1.66,0,0,0-1.023.287.894.894,0,0,0-.381.749.846.846,0,0,0,.342.7,3.154,3.154,0,0,0,1.1.476,5.128,5.128,0,0,1,1.143.428,1.628,1.628,0,0,1,.585.529,1.322,1.322,0,0,1,.2.727,1.266,1.266,0,0,1-.529,1.062,2.252,2.252,0,0,1-1.395.4,2.726,2.726,0,0,1-1.086-.211,1.657,1.657,0,0,1-.75-.592,1.534,1.534,0,0,1-.256-.873h.473a1.118,1.118,0,0,0,.443.934,1.871,1.871,0,0,0,1.177.343,1.75,1.75,0,0,0,1.051-.289A.9.9,0,0,0-561.586,1135.006Z" transform="translate(565.125 -1129.405)" fill="#fff"/><path d="M-554.83,1131.207h-1.919v5.2h-.474v-5.2h-1.915v-.4h4.308Z" transform="translate(563.667 -1129.43)" fill="#fff"/><path d="M-548.416,1130.808v3.823a1.94,1.94,0,0,1-.25.985,1.648,1.648,0,0,1-.694.645,2.268,2.268,0,0,1-1.029.224,2.032,2.032,0,0,1-1.417-.482,1.77,1.77,0,0,1-.552-1.337v-3.857h.469v3.788a1.454,1.454,0,0,0,.4,1.1,1.511,1.511,0,0,0,1.1.391,1.5,1.5,0,0,0,1.094-.393,1.461,1.461,0,0,0,.4-1.093v-3.792Z" transform="translate(562.015 -1129.43)" fill="#fff"/><path d="M-545.4,1136.408v-5.6h1.566a2.428,2.428,0,0,1,1.234.313,2.158,2.158,0,0,1,.852.9,2.827,2.827,0,0,1,.306,1.331v.515a2.826,2.826,0,0,1-.3,1.331,2.162,2.162,0,0,1-.856.9,2.508,2.508,0,0,1-1.267.315Zm.474-5.2v4.8h1.061a1.828,1.828,0,0,0,1.42-.587,2.27,2.27,0,0,0,.535-1.588v-.493a2.217,2.217,0,0,0-.527-1.548,1.8,1.8,0,0,0-1.389-.585Z" transform="translate(560.32 -1129.43)" fill="#fff"/><path d="M-537.972,1136.408h-.473v-5.6h.473Z" transform="translate(558.625 -1129.43)" fill="#fff"/><path d="M-531.744,1133.886a3.247,3.247,0,0,1-.268,1.358,2.037,2.037,0,0,1-.764.9,2.079,2.079,0,0,1-1.146.316,1.99,1.99,0,0,1-1.585-.7,2.806,2.806,0,0,1-.6-1.895v-.577a3.209,3.209,0,0,1,.271-1.356,2.077,2.077,0,0,1,.767-.907,2.079,2.079,0,0,1,1.143-.318,2.1,2.1,0,0,1,1.141.312,2.056,2.056,0,0,1,.763.881,3.184,3.184,0,0,1,.281,1.319Zm-.474-.608a2.47,2.47,0,0,0-.458-1.584,1.518,1.518,0,0,0-1.253-.573,1.516,1.516,0,0,0-1.245.575,2.5,2.5,0,0,0-.463,1.607v.584a2.48,2.48,0,0,0,.461,1.579,1.516,1.516,0,0,0,1.255.583,1.5,1.5,0,0,0,1.254-.575,2.545,2.545,0,0,0,.45-1.6Z" transform="translate(558.057 -1129.405)" fill="#fff"/><path d="M-525.712,1135.006a.907.907,0,0,0-.326-.737,3.476,3.476,0,0,0-1.2-.515,4.18,4.18,0,0,1-1.268-.533,1.256,1.256,0,0,1-.57-1.069,1.252,1.252,0,0,1,.529-1.045,2.172,2.172,0,0,1,1.352-.4,2.249,2.249,0,0,1,1,.216,1.642,1.642,0,0,1,.683.6,1.577,1.577,0,0,1,.242.859h-.477a1.179,1.179,0,0,0-.392-.924,1.532,1.532,0,0,0-1.054-.349,1.66,1.66,0,0,0-1.023.287.894.894,0,0,0-.38.749.846.846,0,0,0,.342.7,3.154,3.154,0,0,0,1.1.476,5.12,5.12,0,0,1,1.143.428,1.628,1.628,0,0,1,.585.529,1.322,1.322,0,0,1,.2.727,1.266,1.266,0,0,1-.529,1.062,2.252,2.252,0,0,1-1.395.4,2.726,2.726,0,0,1-1.086-.211,1.657,1.657,0,0,1-.75-.592,1.533,1.533,0,0,1-.256-.873h.474a1.118,1.118,0,0,0,.443.934,1.871,1.871,0,0,0,1.177.343,1.751,1.751,0,0,0,1.051-.289A.9.9,0,0,0-525.712,1135.006Z" transform="translate(556.386 -1129.405)" fill="#fff"/><path d="M-520.061,1136.408v-5.6h1.566a2.428,2.428,0,0,1,1.234.313,2.162,2.162,0,0,1,.852.9,2.825,2.825,0,0,1,.306,1.331v.515a2.827,2.827,0,0,1-.3,1.331,2.171,2.171,0,0,1-.856.9,2.508,2.508,0,0,1-1.268.315Zm.474-5.2v4.8h1.061a1.83,1.83,0,0,0,1.42-.587,2.27,2.27,0,0,0,.535-1.588v-.493a2.217,2.217,0,0,0-.527-1.548,1.8,1.8,0,0,0-1.389-.585Z" transform="translate(554.147 -1129.43)" fill="#fff"/><path d="M-510.148,1133.723h-2.619v2.285h3.012v.4h-3.485v-5.6h3.466v.4h-2.992v2.116h2.619Z" transform="translate(552.485 -1129.43)" fill="#fff"/><path d="M-501.952,1134.835h-2.542l-.577,1.573h-.5l2.12-5.6h.45l2.119,5.6h-.492Zm-2.4-.4h2.246l-1.122-3.05Z" transform="translate(550.616 -1129.43)" fill="#fff"/><path d="M-497.8,1136.008h2.765v.4h-3.243v-5.6h.477Z" transform="translate(548.84 -1129.43)" fill="#fff"/><path d="M-490.553,1131.207h-1.919v5.2h-.474v-5.2h-1.915v-.4h4.308Z" transform="translate(548.008 -1129.43)" fill="#fff"/><path d="M-484.046,1133.886a3.235,3.235,0,0,1-.268,1.358,2.04,2.04,0,0,1-.763.9,2.084,2.084,0,0,1-1.147.316,1.991,1.991,0,0,1-1.585-.7,2.805,2.805,0,0,1-.6-1.895v-.577a3.207,3.207,0,0,1,.272-1.356,2.076,2.076,0,0,1,.767-.907,2.079,2.079,0,0,1,1.143-.318,2.1,2.1,0,0,1,1.141.312,2.063,2.063,0,0,1,.764.881,3.2,3.2,0,0,1,.281,1.319Zm-.474-.608a2.465,2.465,0,0,0-.458-1.584,1.518,1.518,0,0,0-1.253-.573,1.515,1.515,0,0,0-1.244.575,2.493,2.493,0,0,0-.464,1.607v.584a2.476,2.476,0,0,0,.461,1.579,1.515,1.515,0,0,0,1.254.583,1.5,1.5,0,0,0,1.254-.575,2.54,2.54,0,0,0,.45-1.6Z" transform="translate(546.437 -1129.405)" fill="#fff"/><path d="M-478.059,1134.127v2.281h-.474v-5.6h1.908a2.012,2.012,0,0,1,1.379.445,1.551,1.551,0,0,1,.506,1.227,1.536,1.536,0,0,1-.487,1.218,2.066,2.066,0,0,1-1.409.429Zm0-.4h1.435a1.515,1.515,0,0,0,1.05-.327,1.169,1.169,0,0,0,.362-.913,1.224,1.224,0,0,0-.359-.927,1.443,1.443,0,0,0-1.021-.352h-1.466Z" transform="translate(544.03 -1129.43)" fill="#fff"/><path d="M-469.988,1134.835h-2.542l-.577,1.573h-.5l2.12-5.6h.449l2.119,5.6h-.492Zm-2.4-.4h2.246l-1.122-3.05Z" transform="translate(542.829 -1129.43)" fill="#fff"/><path d="M-466.316,1136.408v-5.6h1.566a2.428,2.428,0,0,1,1.234.313,2.158,2.158,0,0,1,.852.9,2.825,2.825,0,0,1,.306,1.331v.515a2.827,2.827,0,0,1-.3,1.331,2.162,2.162,0,0,1-.856.9,2.509,2.509,0,0,1-1.268.315Zm.473-5.2v4.8h1.061a1.828,1.828,0,0,0,1.42-.587,2.27,2.27,0,0,0,.535-1.588v-.493a2.217,2.217,0,0,0-.527-1.548,1.8,1.8,0,0,0-1.389-.585Z" transform="translate(541.054 -1129.43)" fill="#fff"/><path d="M-457.406,1134.073h-1.627v2.335h-.477v-5.6h1.819a2.079,2.079,0,0,1,1.4.433,1.518,1.518,0,0,1,.5,1.214,1.519,1.519,0,0,1-.315.949,1.621,1.621,0,0,1-.847.569l1.4,2.384v.051h-.5Zm-1.627-.4h1.451a1.341,1.341,0,0,0,.957-.34,1.144,1.144,0,0,0,.362-.878,1.155,1.155,0,0,0-.377-.92,1.563,1.563,0,0,0-1.059-.328h-1.334Z" transform="translate(539.396 -1129.43)" fill="#fff"/><path d="M-450.052,1134.391h-2.543l-.576,1.573h-.5l2.12-5.6h.45l2.119,5.6h-.492Zm.05-5.382a.815.815,0,0,1-.217.591.716.716,0,0,1-.533.225.936.936,0,0,1-.572-.213.863.863,0,0,0-.5-.211.418.418,0,0,0-.3.119.452.452,0,0,0-.121.335l-.346-.011a.831.831,0,0,1,.21-.582.694.694,0,0,1,.54-.229.691.691,0,0,1,.315.065,1.883,1.883,0,0,1,.247.146,2.569,2.569,0,0,0,.232.146.556.556,0,0,0,.276.066.406.406,0,0,0,.3-.127.467.467,0,0,0,.126-.343Zm-2.446,4.981h2.246l-1.122-3.05Z" transform="translate(537.972 -1128.986)" fill="#fff"/><path d="M-442.314,1133.886a3.247,3.247,0,0,1-.267,1.358,2.047,2.047,0,0,1-.764.9,2.082,2.082,0,0,1-1.147.316,1.989,1.989,0,0,1-1.584-.7,2.8,2.8,0,0,1-.6-1.895v-.577a3.22,3.22,0,0,1,.271-1.356,2.073,2.073,0,0,1,.768-.907,2.076,2.076,0,0,1,1.143-.318,2.1,2.1,0,0,1,1.14.312,2.052,2.052,0,0,1,.764.881,3.2,3.2,0,0,1,.281,1.319Zm-.473-.608a2.469,2.469,0,0,0-.458-1.584,1.519,1.519,0,0,0-1.253-.573,1.516,1.516,0,0,0-1.245.575,2.5,2.5,0,0,0-.463,1.607v.584a2.48,2.48,0,0,0,.461,1.579,1.515,1.515,0,0,0,1.254.583,1.5,1.5,0,0,0,1.255-.575,2.544,2.544,0,0,0,.449-1.6Z" transform="translate(536.27 -1129.405)" fill="#fff"/></g></g></g></g></svg>