<svg xmlns="http://www.w3.org/2000/svg" width="54.75" height="54.75" viewBox="0 0 54.75 54.75">
  <path id="Caminho_3471" data-name="Caminho 3471" d="M-47.5,543.875H-100A1.141,1.141,0,0,0-101.125,545v52.5a1.126,1.126,0,0,0,2.25,0V566.781h19.822a1.126,1.126,0,0,0,0-2.25H-98.875V546.125h35.758v9.494a1.126,1.126,0,0,0,2.25,0v-9.494h12.242v18.406H-66.434a1.14,1.14,0,0,0-1.125,1.125v22.377a1.126,1.126,0,0,0,2.25,0V566.781h16.684v29.594H-86.66a1.126,1.126,0,0,0,0,2.25H-47.5a1.141,1.141,0,0,0,1.125-1.125V545A1.141,1.141,0,0,0-47.5,543.875Z" transform="translate(101.125 -543.875)" fill="#fff"/>
</svg>
